<svg width="1379" height="278" viewBox="0 0 1379 278" fill="white" xmlns="http://www.w3.org/2000/svg">
<path d="M12.8 272C4.8 272 0.800001 268 0.800001 260V12C0.800001 3.99999 4.8 -2.86102e-06 12.8 -2.86102e-06H126.4C152.533 -2.86102e-06 172.533 6.53333 186.4 19.6C200.267 32.6667 207.2 50.1333 207.2 72C207.2 85.0667 203.733 96.8 196.8 107.2C190.133 117.6 180.667 125.333 168.4 130.4C199.867 140.267 215.6 161.733 215.6 194.8C215.6 209.2 212.4 222.267 206 234C199.6 245.733 189.867 255.067 176.8 262C163.733 268.667 147.867 272 129.2 272H12.8ZM123.2 116.8C138.667 116.8 150.533 112.933 158.8 105.2C167.333 97.2 171.6 86.1333 171.6 72C171.6 56.8 167.733 45.8667 160 39.2C152.533 32.5333 140.133 29.2 122.8 29.2H37.2V116.8H123.2ZM128.8 242.8C146.4 242.8 159.333 238.4 167.6 229.6C175.867 220.533 180 208.933 180 194.8C180 178.533 174.933 166.267 164.8 158C154.667 149.733 140.533 145.6 122.4 145.6H37.2V242.8H128.8ZM358.547 278C324.68 278 298.68 268.933 280.547 250.8C262.414 232.4 253.347 207.467 253.347 176C253.347 144.533 262.414 119.733 280.547 101.6C298.68 83.2 324.68 74 358.547 74C392.147 74 418.014 83.2 436.147 101.6C454.547 119.733 463.747 144.533 463.747 176C463.747 207.467 454.547 232.4 436.147 250.8C418.014 268.933 392.147 278 358.547 278ZM358.547 250C380.947 250 398.014 243.733 409.747 231.2C421.747 218.4 427.747 200 427.747 176C427.747 152.267 421.88 134.133 410.147 121.6C398.414 108.8 381.214 102.4 358.547 102.4C335.88 102.4 318.547 108.8 306.547 121.6C294.814 134.133 288.947 152.267 288.947 176C288.947 199.733 294.814 218 306.547 230.8C318.547 243.6 335.88 250 358.547 250ZM577.638 278C562.704 278 547.771 276.4 532.838 273.2C518.171 270 505.771 265.067 495.638 258.4C492.971 256.8 491.638 255.2 491.638 253.6C491.638 252.8 492.038 251.6 492.838 250L501.238 235.6C502.571 233.467 503.771 232.4 504.838 232.4C505.104 232.4 506.304 232.933 508.438 234C516.704 239.333 526.571 243.6 538.038 246.8C549.504 249.733 560.838 251.2 572.038 251.2C589.638 251.2 602.571 249.2 610.838 245.2C619.104 240.933 623.238 233.867 623.238 224C623.238 217.6 621.504 212.533 618.038 208.8C614.838 204.8 609.371 201.333 601.638 198.4C594.171 195.2 582.171 191.2 565.638 186.4C550.438 181.867 538.304 177.333 529.238 172.8C520.171 168.267 512.971 162.4 507.638 155.2C502.304 147.733 499.638 138.4 499.638 127.2C499.638 109.6 506.704 96.4 520.838 87.6C535.238 78.5333 554.038 74 577.238 74C592.171 74 606.038 75.7333 618.838 79.2C631.638 82.4 642.438 86.9333 651.238 92.8C653.904 94.4 655.238 96.1333 655.238 98C655.238 98.8 654.838 100 654.038 101.6L646.038 114.8C644.971 116.667 643.904 117.6 642.838 117.6C641.504 117.6 640.171 117.067 638.838 116C623.104 105.867 603.638 100.8 580.438 100.8C564.438 100.8 552.838 102.8 545.638 106.8C538.438 110.8 534.838 117.867 534.838 128C534.838 134.4 536.571 139.6 540.038 143.6C543.771 147.333 548.704 150.533 554.838 153.2C560.971 155.6 570.438 158.667 583.238 162.4L598.838 167.2C614.304 172 626.304 176.933 634.838 182C643.638 187.067 649.904 192.933 653.638 199.6C657.371 206.267 659.238 214.667 659.238 224.8C659.238 240.8 652.304 253.733 638.438 263.6C624.571 273.2 604.304 278 577.638 278ZM796.047 278C762.18 278 736.18 268.933 718.047 250.8C699.914 232.4 690.847 207.467 690.847 176C690.847 144.533 699.914 119.733 718.047 101.6C736.18 83.2 762.18 74 796.047 74C829.647 74 855.514 83.2 873.647 101.6C892.047 119.733 901.247 144.533 901.247 176C901.247 207.467 892.047 232.4 873.647 250.8C855.514 268.933 829.647 278 796.047 278ZM796.047 250C818.447 250 835.514 243.733 847.247 231.2C859.247 218.4 865.247 200 865.247 176C865.247 152.267 859.38 134.133 847.647 121.6C835.914 108.8 818.714 102.4 796.047 102.4C773.38 102.4 756.047 108.8 744.047 121.6C732.314 134.133 726.447 152.267 726.447 176C726.447 199.733 732.314 218 744.047 230.8C756.047 243.6 773.38 250 796.047 250ZM959.294 272C951.027 272 946.894 268 946.894 260V90C946.894 86.2667 947.427 83.7333 948.494 82.4C949.827 80.8 952.36 80 956.094 80H969.294C975.16 80 978.094 82.8 978.094 88.4V106.8C997.027 84.9333 1024.49 74 1060.49 74C1082.36 74 1099.69 79.7333 1112.49 91.2C1125.56 102.4 1132.09 119.467 1132.09 142.4V260C1132.09 264 1131.16 267.067 1129.29 269.2C1127.43 271.067 1124.36 272 1120.09 272H1108.09C1099.83 272 1095.69 268 1095.69 260V144.4C1095.69 128.667 1091.96 117.6 1084.49 111.2C1077.29 104.8 1065.56 101.6 1049.29 101.6C1038.36 101.6 1027.69 103.733 1017.29 108C1007.16 112 998.894 117.733 992.494 125.2C986.36 132.667 983.294 141.2 983.294 150.8V260C983.294 264 982.36 267.067 980.494 269.2C978.627 271.067 975.56 272 971.294 272H959.294ZM1285.21 278C1265.21 278 1246.95 274.533 1230.41 267.6C1213.88 260.667 1200.55 249.867 1190.41 235.2C1180.55 220.267 1175.61 201.733 1175.61 179.6C1175.61 144.933 1184.55 118.667 1202.41 100.8C1220.55 82.9333 1246.15 74 1279.21 74C1312.01 74 1336.68 82.6667 1353.21 100C1369.75 117.067 1378.01 142.533 1378.01 176.4C1378.01 183.6 1374.55 187.2 1367.61 187.2H1210.41C1210.41 208.267 1217.35 224.267 1231.21 235.2C1245.08 246.133 1264.28 251.6 1288.81 251.6C1312.01 251.6 1332.01 246.4 1348.81 236C1350.41 235.2 1351.61 234.8 1352.41 234.8C1354.01 234.8 1355.21 235.733 1356.01 237.6L1363.61 250.8C1364.15 251.6 1364.41 252.667 1364.41 254C1364.41 255.867 1363.35 257.467 1361.21 258.8C1350.55 265.467 1339.08 270.267 1326.81 273.2C1314.81 276.4 1300.95 278 1285.21 278ZM1344.41 162.8C1344.41 142.8 1338.95 127.333 1328.01 116.4C1317.08 105.2 1300.81 99.6 1279.21 99.6C1257.08 99.6 1240.01 105.333 1228.01 116.8C1216.28 128.267 1210.41 143.6 1210.41 162.8H1344.41Z" fill="white"/>
</svg>
